<svg width="32" height="32" viewBox="0 0 32 32" fill="none" xmlns="http://www.w3.org/2000/svg">
<path d="M5.25125 10.7508C4.238 10.7503 3.41675 11.5736 3.4165 12.5861L3.41775 20.2701C3.41759 20.5112 3.46495 20.7499 3.55713 20.9727C3.64931 21.1955 3.78451 21.3979 3.95498 21.5684C4.12545 21.7389 4.32786 21.8741 4.55062 21.9663C4.77339 22.0585 5.01215 22.1059 5.25325 22.1058C5.49432 22.1061 5.73307 22.0588 5.95583 21.9666C6.17859 21.8744 6.38097 21.7392 6.55138 21.5687C6.7218 21.3982 6.85689 21.1958 6.94893 20.973C7.04097 20.7501 7.08815 20.5114 7.08775 20.2703V12.5851C7.08722 12.0984 6.89349 11.6318 6.54913 11.2878C6.20477 10.9439 5.73795 10.7507 5.25125 10.7508ZM20.0495 3.8503L21.3303 1.51155C21.3629 1.45222 21.3706 1.38238 21.3519 1.31733C21.3331 1.25228 21.2892 1.19734 21.23 1.16455C21.1706 1.13245 21.101 1.12513 21.0363 1.1442C20.9715 1.16326 20.917 1.20716 20.8845 1.2663L19.5908 3.62955C18.5023 3.14505 17.284 2.87355 15.995 2.8748C14.7095 2.87355 13.4918 3.1443 12.4078 3.62605L11.1125 1.2688C11.0967 1.23938 11.0752 1.21338 11.0493 1.19233C11.0233 1.17127 10.9935 1.15556 10.9614 1.14612C10.9294 1.13668 10.8958 1.13369 10.8626 1.13733C10.8294 1.14096 10.7972 1.15115 10.768 1.1673C10.7385 1.18308 10.7124 1.20459 10.6913 1.23057C10.6702 1.25655 10.6545 1.28647 10.6451 1.3186C10.6357 1.35072 10.6328 1.3844 10.6365 1.41766C10.6403 1.45092 10.6507 1.4831 10.667 1.5123L11.9483 3.84955C9.43075 5.1478 7.72975 7.6203 7.73125 10.4591L24.2608 10.4571C24.2613 7.6193 22.5633 5.1518 20.0495 3.8503ZM12.2355 7.46455C12.0517 7.46445 11.8754 7.39133 11.7455 7.26128C11.6156 7.13122 11.5427 6.95488 11.5428 6.77105C11.5429 6.58722 11.616 6.41097 11.746 6.28105C11.8761 6.15113 12.0524 6.0782 12.2363 6.0783C12.4201 6.07863 12.5963 6.1518 12.7264 6.28177C12.8564 6.41175 12.9296 6.58795 12.93 6.7718C12.9297 6.95573 12.8563 7.13201 12.7261 7.2619C12.5959 7.3918 12.4194 7.46469 12.2355 7.46455ZM19.762 7.4633C19.671 7.46337 19.5809 7.4455 19.4968 7.41071C19.4127 7.37592 19.3363 7.3249 19.2719 7.26056C19.2076 7.19623 19.1565 7.11983 19.1217 7.03575C19.0869 6.95167 19.069 6.86156 19.069 6.77055C19.07 6.58688 19.1433 6.41099 19.2731 6.28099C19.4028 6.151 19.5786 6.07737 19.7623 6.07605C19.9458 6.07757 20.1213 6.15134 20.2508 6.28139C20.3803 6.41144 20.4533 6.58728 20.454 6.7708C20.4541 6.86173 20.4363 6.95178 20.4015 7.03581C20.3668 7.11984 20.3158 7.1962 20.2516 7.26052C20.1873 7.32484 20.111 7.37585 20.027 7.41065C19.943 7.44544 19.8529 7.46334 19.762 7.4633ZM7.79875 11.0976L7.8015 23.0063C7.80121 23.2635 7.85165 23.5182 7.94995 23.7559C8.04825 23.9936 8.19246 24.2095 8.37434 24.3914C8.55622 24.5732 8.77219 24.7174 9.00988 24.8157C9.24757 24.914 9.5023 24.9644 9.7595 24.9641L11.0928 24.9646L11.0943 29.0306C11.094 30.0431 11.917 30.8661 12.928 30.8661C13.942 30.8661 14.7635 30.0423 14.7638 29.0293L14.7628 24.9643L17.24 24.9636L17.241 29.0293C17.241 30.0411 18.0643 30.8658 19.0755 30.8638C20.0895 30.8646 20.9115 30.0408 20.9113 29.0278L20.91 24.9631L22.248 24.9621C22.5052 24.9621 22.7599 24.9115 22.9976 24.813C23.2353 24.7146 23.4512 24.5704 23.6331 24.3885C23.815 24.2067 23.9593 23.9907 24.0578 23.7531C24.1563 23.5155 24.207 23.2608 24.207 23.0036L24.2048 11.0948L7.79875 11.0976ZM28.5823 12.5833C28.5823 12.3423 28.5348 12.1037 28.4426 11.881C28.3504 11.6584 28.2152 11.4561 28.0448 11.2857C27.8743 11.1153 27.672 10.9802 27.4493 10.888C27.2267 10.7958 26.988 10.7485 26.747 10.7486C25.7338 10.7476 24.9128 11.5703 24.9128 12.5841L24.9143 20.2686C24.9141 20.5095 24.9614 20.7482 25.0536 20.9709C25.1457 21.1936 25.2809 21.3959 25.4513 21.5663C25.6217 21.7367 25.824 21.8718 26.0467 21.964C26.2694 22.0561 26.508 22.1035 26.749 22.1033C26.99 22.1033 27.2287 22.0559 27.4514 21.9636C27.674 21.8713 27.8763 21.7361 28.0467 21.5656C28.2171 21.3951 28.3522 21.1927 28.4443 20.97C28.5364 20.7473 28.5837 20.5086 28.5835 20.2676L28.5823 12.5833Z" fill="white"/>
</svg>
