<svg width="25" height="30" viewBox="0 0 25 30" fill="none" xmlns="http://www.w3.org/2000/svg">
<path d="M12.5642 8.62979C11.3962 8.62979 9.58818 7.30179 7.68418 7.34979C5.17218 7.38179 2.86818 8.80579 1.57218 11.0618C-1.03582 15.5898 0.900179 22.2778 3.44418 25.9578C4.69218 27.7498 6.16418 29.7658 8.11618 29.7018C9.98818 29.6218 10.6922 28.4858 12.9642 28.4858C15.2202 28.4858 15.8602 29.7018 17.8442 29.6538C19.8602 29.6218 21.1402 27.8298 22.3722 26.0218C23.7962 23.9418 24.3882 21.9258 24.4202 21.8138C24.3722 21.7978 20.5002 20.3098 20.4522 15.8298C20.4202 12.0858 23.5082 10.2938 23.6522 10.2138C21.8922 7.63779 19.1882 7.34979 18.2442 7.28579C15.7802 7.09379 13.7162 8.62979 12.5642 8.62979ZM16.7242 4.85379C17.7642 3.60579 18.4522 1.86179 18.2602 0.133789C16.7722 0.197789 14.9802 1.12579 13.9082 2.37379C12.9482 3.47779 12.1162 5.25379 12.3402 6.94979C13.9882 7.07779 15.6842 6.10179 16.7242 4.85379Z" fill="white"/>
</svg>
