<svg width="24" height="24" viewBox="0 0 24 24" fill="none" xmlns="http://www.w3.org/2000/svg">
<g clip-path="url(#clip0_6971_4990)">
<path d="M24 2.92282C23.1013 3.41049 22.148 3.73059 21.1719 3.87249C22.1887 3.12608 22.9693 1.9441 23.3369 0.535798C22.3704 1.23833 21.3129 1.7333 20.2103 1.99934C19.312 0.827243 18.0324 0.0947266 16.6162 0.0947266C13.8968 0.0947266 11.6921 2.79513 11.6921 6.12573C11.6921 6.5985 11.7357 7.05875 11.8196 7.50028C7.72744 7.24868 4.09931 4.84765 1.67072 1.19873C1.24697 2.08948 1.00416 3.12562 1.00416 4.23077C1.00416 6.32324 1.8735 8.16918 3.19462 9.25078C2.4127 9.22079 1.64798 8.96211 0.964313 8.49634C0.964031 8.5216 0.964031 8.54686 0.964031 8.57224C0.964031 11.4944 2.66128 13.932 4.91372 14.4861C4.18864 14.7277 3.42809 14.763 2.69016 14.5895C3.31669 16.9856 5.13516 18.7292 7.28972 18.778C5.60456 20.3955 3.48141 21.3598 1.17459 21.3598C0.777094 21.3598 0.385219 21.3312 0 21.2755C2.17903 22.9867 4.76719 23.9852 7.54781 23.9852C16.6047 23.9852 21.5573 14.795 21.5573 6.82518C21.5573 6.56359 21.5526 6.30349 21.543 6.04489C22.507 5.19132 23.339 4.13409 24 2.92282Z" fill="#55ACEE"/>
</g>
<defs>
<clipPath id="clip0_6971_4990">
<rect width="24" height="24" fill="white"/>
</clipPath>
</defs>
</svg>
